<mxfile host="Electron" agent="Mozilla/5.0 (Windows NT 10.0; Win64; x64) AppleWebKit/537.36 (KHTML, like Gecko) draw.io/24.7.5 Chrome/126.0.6478.183 Electron/31.3.0 Safari/537.36" version="24.7.5">
  <diagram id="2y_yg3WEH6rau_YiV4JL" name="Page-1">
    <mxGraphModel dx="1036" dy="606" grid="0" gridSize="10" guides="1" tooltips="1" connect="1" arrows="1" fold="1" page="1" pageScale="1" pageWidth="850" pageHeight="1100" math="0" shadow="1">
      <root>
        <mxCell id="0" />
        <mxCell id="1" parent="0" />
        <mxCell id="YbCWROUBkCW2yX08nqCv-1" value="&lt;b&gt;Role:&lt;/b&gt; Employee" style="rounded=1;whiteSpace=wrap;html=1;fontSize=19;fillColor=#dae8fc;strokeColor=#6c8ebf;" vertex="1" parent="1">
          <mxGeometry x="270" y="90" width="380" height="100" as="geometry" />
        </mxCell>
        <mxCell id="YbCWROUBkCW2yX08nqCv-11" style="edgeStyle=orthogonalEdgeStyle;rounded=1;orthogonalLoop=1;jettySize=auto;html=1;entryX=0;entryY=0.5;entryDx=0;entryDy=0;" edge="1" parent="1" source="YbCWROUBkCW2yX08nqCv-2" target="YbCWROUBkCW2yX08nqCv-3">
          <mxGeometry relative="1" as="geometry" />
        </mxCell>
        <mxCell id="YbCWROUBkCW2yX08nqCv-12" style="edgeStyle=orthogonalEdgeStyle;rounded=1;orthogonalLoop=1;jettySize=auto;html=1;entryX=0;entryY=0.75;entryDx=0;entryDy=0;" edge="1" parent="1" source="YbCWROUBkCW2yX08nqCv-2" target="YbCWROUBkCW2yX08nqCv-4">
          <mxGeometry relative="1" as="geometry" />
        </mxCell>
        <mxCell id="YbCWROUBkCW2yX08nqCv-13" style="edgeStyle=orthogonalEdgeStyle;rounded=1;orthogonalLoop=1;jettySize=auto;html=1;entryX=0;entryY=0.5;entryDx=0;entryDy=0;" edge="1" parent="1" source="YbCWROUBkCW2yX08nqCv-2" target="YbCWROUBkCW2yX08nqCv-5">
          <mxGeometry relative="1" as="geometry" />
        </mxCell>
        <mxCell id="YbCWROUBkCW2yX08nqCv-14" style="edgeStyle=orthogonalEdgeStyle;rounded=1;orthogonalLoop=1;jettySize=auto;html=1;entryX=0;entryY=0.5;entryDx=0;entryDy=0;" edge="1" parent="1" source="YbCWROUBkCW2yX08nqCv-2" target="YbCWROUBkCW2yX08nqCv-6">
          <mxGeometry relative="1" as="geometry" />
        </mxCell>
        <mxCell id="YbCWROUBkCW2yX08nqCv-2" value="&lt;b&gt;Role:&lt;/b&gt; Employee" style="rounded=1;whiteSpace=wrap;html=1;fontSize=19;fillColor=#dae8fc;strokeColor=#6c8ebf;" vertex="1" parent="1">
          <mxGeometry x="190" y="280" width="200" height="100" as="geometry" />
        </mxCell>
        <mxCell id="YbCWROUBkCW2yX08nqCv-3" value="&lt;b&gt;Permission:&lt;/b&gt; Save Timesheet" style="rounded=1;whiteSpace=wrap;html=1;fontSize=14;fillColor=#d5e8d4;strokeColor=#82b366;" vertex="1" parent="1">
          <mxGeometry x="520" y="250" width="260" height="30" as="geometry" />
        </mxCell>
        <mxCell id="YbCWROUBkCW2yX08nqCv-4" value="&lt;b&gt;Permission: &lt;/b&gt;View Vacations" style="rounded=1;whiteSpace=wrap;html=1;fontSize=14;fillColor=#d5e8d4;strokeColor=#82b366;" vertex="1" parent="1">
          <mxGeometry x="520" y="290" width="260" height="30" as="geometry" />
        </mxCell>
        <mxCell id="YbCWROUBkCW2yX08nqCv-5" value="&lt;b&gt;Permission:&lt;/b&gt; Request Vacation" style="rounded=1;whiteSpace=wrap;html=1;fontSize=14;fillColor=#d5e8d4;strokeColor=#82b366;" vertex="1" parent="1">
          <mxGeometry x="520" y="330" width="260" height="30" as="geometry" />
        </mxCell>
        <mxCell id="YbCWROUBkCW2yX08nqCv-6" value="&lt;b&gt;Permission:&lt;/b&gt; Request Medical Card" style="rounded=1;whiteSpace=wrap;html=1;fontSize=14;fillColor=#d5e8d4;strokeColor=#82b366;" vertex="1" parent="1">
          <mxGeometry x="520" y="370" width="260" height="30" as="geometry" />
        </mxCell>
        <mxCell id="YbCWROUBkCW2yX08nqCv-8" style="edgeStyle=orthogonalEdgeStyle;rounded=1;orthogonalLoop=1;jettySize=auto;html=1;entryX=0;entryY=0.5;entryDx=0;entryDy=0;" edge="1" parent="1" source="YbCWROUBkCW2yX08nqCv-7" target="YbCWROUBkCW2yX08nqCv-1">
          <mxGeometry relative="1" as="geometry" />
        </mxCell>
        <mxCell id="YbCWROUBkCW2yX08nqCv-7" value="User" style="shape=umlActor;verticalLabelPosition=bottom;verticalAlign=top;html=1;outlineConnect=0;fillColor=#ffe6cc;strokeColor=#d79b00;rounded=1;" vertex="1" parent="1">
          <mxGeometry x="40" y="110" width="30" height="60" as="geometry" />
        </mxCell>
        <mxCell id="YbCWROUBkCW2yX08nqCv-10" style="edgeStyle=orthogonalEdgeStyle;rounded=1;orthogonalLoop=1;jettySize=auto;html=1;entryX=0;entryY=0.5;entryDx=0;entryDy=0;" edge="1" parent="1" source="YbCWROUBkCW2yX08nqCv-9" target="YbCWROUBkCW2yX08nqCv-2">
          <mxGeometry relative="1" as="geometry" />
        </mxCell>
        <mxCell id="YbCWROUBkCW2yX08nqCv-9" value="User" style="shape=umlActor;verticalLabelPosition=bottom;verticalAlign=top;html=1;outlineConnect=0;fillColor=#ffe6cc;strokeColor=#d79b00;rounded=1;" vertex="1" parent="1">
          <mxGeometry x="40" y="300" width="30" height="60" as="geometry" />
        </mxCell>
        <mxCell id="YbCWROUBkCW2yX08nqCv-15" style="edgeStyle=orthogonalEdgeStyle;rounded=1;orthogonalLoop=1;jettySize=auto;html=1;entryX=0;entryY=0.5;entryDx=0;entryDy=0;" edge="1" parent="1" source="YbCWROUBkCW2yX08nqCv-19" target="YbCWROUBkCW2yX08nqCv-20">
          <mxGeometry relative="1" as="geometry" />
        </mxCell>
        <mxCell id="YbCWROUBkCW2yX08nqCv-16" style="edgeStyle=orthogonalEdgeStyle;rounded=1;orthogonalLoop=1;jettySize=auto;html=1;entryX=0;entryY=0.75;entryDx=0;entryDy=0;" edge="1" parent="1" source="YbCWROUBkCW2yX08nqCv-19" target="YbCWROUBkCW2yX08nqCv-21">
          <mxGeometry relative="1" as="geometry" />
        </mxCell>
        <mxCell id="YbCWROUBkCW2yX08nqCv-17" style="edgeStyle=orthogonalEdgeStyle;rounded=1;orthogonalLoop=1;jettySize=auto;html=1;entryX=0;entryY=0.5;entryDx=0;entryDy=0;" edge="1" parent="1" source="YbCWROUBkCW2yX08nqCv-19" target="YbCWROUBkCW2yX08nqCv-22">
          <mxGeometry relative="1" as="geometry" />
        </mxCell>
        <mxCell id="YbCWROUBkCW2yX08nqCv-18" style="edgeStyle=orthogonalEdgeStyle;rounded=1;orthogonalLoop=1;jettySize=auto;html=1;entryX=0;entryY=0.5;entryDx=0;entryDy=0;" edge="1" parent="1" source="YbCWROUBkCW2yX08nqCv-19" target="YbCWROUBkCW2yX08nqCv-23">
          <mxGeometry relative="1" as="geometry" />
        </mxCell>
        <mxCell id="YbCWROUBkCW2yX08nqCv-19" value="&lt;b&gt;Role: &lt;/b&gt;Employee" style="rounded=1;whiteSpace=wrap;html=1;fontSize=19;fillColor=#dae8fc;strokeColor=#6c8ebf;" vertex="1" parent="1">
          <mxGeometry x="190" y="500" width="200" height="100" as="geometry" />
        </mxCell>
        <mxCell id="YbCWROUBkCW2yX08nqCv-20" value="&lt;b&gt;Permission:&lt;/b&gt; Save Timesheet" style="rounded=1;whiteSpace=wrap;html=1;fontSize=14;fillColor=#d5e8d4;strokeColor=#82b366;" vertex="1" parent="1">
          <mxGeometry x="520" y="470" width="260" height="30" as="geometry" />
        </mxCell>
        <mxCell id="YbCWROUBkCW2yX08nqCv-21" value="&lt;b&gt;Permission:&lt;/b&gt; View Vacations" style="rounded=1;whiteSpace=wrap;html=1;fontSize=14;fillColor=#d5e8d4;strokeColor=#82b366;" vertex="1" parent="1">
          <mxGeometry x="520" y="510" width="260" height="30" as="geometry" />
        </mxCell>
        <mxCell id="YbCWROUBkCW2yX08nqCv-22" value="&lt;b&gt;Permission:&lt;/b&gt; Request Vacation" style="rounded=1;whiteSpace=wrap;html=1;fontSize=14;fillColor=#d5e8d4;strokeColor=#82b366;" vertex="1" parent="1">
          <mxGeometry x="520" y="550" width="260" height="30" as="geometry" />
        </mxCell>
        <mxCell id="YbCWROUBkCW2yX08nqCv-23" value="&lt;b&gt;Permission:&lt;/b&gt; Request Medical Card" style="rounded=1;whiteSpace=wrap;html=1;fontSize=14;fillColor=#d5e8d4;strokeColor=#82b366;" vertex="1" parent="1">
          <mxGeometry x="520" y="590" width="260" height="30" as="geometry" />
        </mxCell>
        <mxCell id="YbCWROUBkCW2yX08nqCv-24" style="edgeStyle=orthogonalEdgeStyle;rounded=1;orthogonalLoop=1;jettySize=auto;html=1;entryX=0;entryY=0.5;entryDx=0;entryDy=0;" edge="1" parent="1" source="YbCWROUBkCW2yX08nqCv-25" target="YbCWROUBkCW2yX08nqCv-19">
          <mxGeometry relative="1" as="geometry" />
        </mxCell>
        <mxCell id="YbCWROUBkCW2yX08nqCv-25" value="User" style="shape=umlActor;verticalLabelPosition=bottom;verticalAlign=top;html=1;outlineConnect=0;fillColor=#ffe6cc;strokeColor=#d79b00;rounded=1;" vertex="1" parent="1">
          <mxGeometry x="40" y="520" width="30" height="60" as="geometry" />
        </mxCell>
        <mxCell id="YbCWROUBkCW2yX08nqCv-26" value="&lt;b style=&quot;font-size: 14px;&quot;&gt;Permission: &lt;/b&gt;Approve / Reject Vacation" style="rounded=1;whiteSpace=wrap;html=1;fontSize=14;fillColor=#d5e8d4;strokeColor=#82b366;" vertex="1" parent="1">
          <mxGeometry x="165" y="630" width="260" height="30" as="geometry" />
        </mxCell>
        <mxCell id="YbCWROUBkCW2yX08nqCv-27" value="" style="endArrow=none;html=1;rounded=1;strokeWidth=3;" edge="1" parent="1">
          <mxGeometry width="50" height="50" relative="1" as="geometry">
            <mxPoint x="30" y="220" as="sourcePoint" />
            <mxPoint x="830" y="220" as="targetPoint" />
          </mxGeometry>
        </mxCell>
        <mxCell id="YbCWROUBkCW2yX08nqCv-28" value="" style="endArrow=none;html=1;rounded=1;strokeWidth=3;" edge="1" parent="1">
          <mxGeometry width="50" height="50" relative="1" as="geometry">
            <mxPoint x="30" y="450" as="sourcePoint" />
            <mxPoint x="830" y="450" as="targetPoint" />
          </mxGeometry>
        </mxCell>
        <mxCell id="YbCWROUBkCW2yX08nqCv-29" value="+" style="text;html=1;align=center;verticalAlign=middle;whiteSpace=wrap;rounded=1;fontSize=26;" vertex="1" parent="1">
          <mxGeometry x="270" y="600" width="60" height="30" as="geometry" />
        </mxCell>
      </root>
    </mxGraphModel>
  </diagram>
</mxfile>
